<?xml version="1.0" standalone="no"?>
<!DOCTYPE svg PUBLIC "-//W3C//DTD SVG 20010904//EN"
 "http://www.w3.org/TR/2001/REC-SVG-20010904/DTD/svg10.dtd">
<svg version="1.0" xmlns="http://www.w3.org/2000/svg"
 width="920.000000pt" height="660.000000pt" viewBox="0 0 920.000000 660.000000"
 preserveAspectRatio="xMidYMid meet">

<g transform="translate(0.000000,660.000000) scale(0.100000,-0.100000)"
fill="#000000" stroke="none">
<path d="M2349 5597 c-180 -281 -368 -576 -418 -654 -50 -79 -91 -145 -91
-147 0 -5 145 -231 358 -556 66 -102 207 -319 314 -482 l193 -298 810 0 810 1
41 67 c22 37 117 189 209 337 93 149 196 315 230 370 34 55 127 204 205 330
79 127 143 235 143 240 0 6 -194 301 -431 658 l-432 647 -808 0 -807 0 -326
-513z m2079 6 c127 -191 230 -348 229 -349 -1 -2 -23 2 -47 7 -82 19 -298 -9
-373 -48 -18 -9 -131 -54 -252 -101 -196 -75 -229 -85 -304 -89 -56 -4 -82 -2
-78 5 4 5 21 13 39 16 54 10 92 40 164 128 115 138 134 171 146 244 8 46 8 68
0 76 -18 18 -29 0 -35 -58 -6 -61 -34 -109 -119 -210 -24 -28 -54 -65 -68 -83
-31 -40 -133 -80 -138 -55 -2 8 8 24 22 35 29 23 34 60 10 79 -8 8 -32 16 -52
19 -22 4 -38 13 -40 22 -4 22 126 159 188 199 28 18 67 38 88 45 40 14 52 32
28 41 -23 9 -133 -46 -196 -98 -31 -25 -75 -71 -99 -102 -24 -31 -51 -56 -61
-56 -9 0 -29 18 -43 39 -64 97 -261 243 -304 227 -22 -9 -4 -27 73 -72 120
-70 227 -185 211 -227 -3 -8 -21 -18 -39 -22 -18 -4 -39 -12 -45 -17 -21 -17
-15 -60 14 -90 l27 -28 -25 0 c-39 1 -104 35 -140 75 -19 20 -66 79 -105 132
-67 88 -72 99 -79 159 -5 45 -11 64 -21 64 -21 0 -19 -107 4 -150 23 -47 137
-195 187 -245 22 -22 59 -47 83 -54 69 -23 62 -34 -19 -29 -61 3 -105 16 -254
72 -99 38 -220 85 -270 106 -109 46 -171 59 -292 62 -51 2 -93 7 -93 11 0 7
390 625 413 655 7 9 164 12 722 12 l712 0 231 -347z m-1925 -353 c82 -8 119
-18 225 -61 305 -123 446 -171 517 -176 l70 -5 0 -49 0 -48 -50 -7 c-65 -8
-78 -16 -152 -85 -75 -69 -116 -83 -224 -76 -122 8 -228 79 -259 172 -8 23
-19 35 -37 40 -59 14 -192 127 -260 219 -24 32 -41 61 -38 64 5 5 69 19 95 21
8 0 59 -4 113 -9z m2138 -16 c40 -24 -237 -294 -301 -294 -10 0 -26 -20 -41
-51 -49 -105 -147 -159 -289 -159 -88 0 -110 11 -212 105 -50 46 -63 53 -112
59 -45 6 -56 11 -56 25 0 10 -3 32 -6 48 l-6 30 74 5 c75 6 201 48 521 177 91
37 149 54 205 61 75 8 206 5 223 -6z m178 -218 l143 -214 -367 -591 -368 -591
-716 2 -715 3 -378 580 c-208 319 -377 587 -374 596 4 19 239 389 247 389 3 0
21 -21 40 -46 47 -64 181 -179 234 -200 35 -15 48 -28 69 -71 51 -104 166
-160 312 -150 93 5 124 20 189 87 50 52 79 67 143 76 48 6 52 5 52 -14 0 -14
-10 -24 -33 -31 -124 -41 -231 -131 -284 -238 -26 -54 -30 -58 -117 -98 -50
-23 -108 -48 -128 -54 -49 -16 -53 -46 -5 -38 47 8 191 65 228 90 18 12 46 48
63 80 44 83 80 124 146 166 68 44 151 72 158 52 2 -6 14 -24 27 -39 l24 -28
-85 -33 c-93 -37 -128 -60 -148 -99 -11 -23 -38 -133 -61 -249 -6 -31 -82
-133 -199 -267 -35 -40 -46 -60 -38 -68 15 -15 20 -10 119 105 146 169 142
162 178 318 18 77 40 148 49 158 9 10 34 26 55 35 32 15 45 16 80 6 24 -6 41
-13 38 -16 -2 -3 -30 -9 -62 -14 -32 -5 -62 -13 -66 -17 -4 -5 -3 -39 2 -78
37 -308 55 -365 143 -479 25 -32 46 -65 46 -72 0 -22 18 -16 25 7 4 12 35 52
70 90 83 91 89 108 136 438 14 99 11 105 -76 116 -53 6 -70 20 -40 31 18 7
108 -22 135 -44 20 -16 38 -72 65 -197 8 -33 14 -61 14 -62 1 -2 1 -11 1 -22
0 -10 21 -45 48 -78 83 -104 206 -243 214 -243 5 0 11 6 14 14 3 9 -27 51 -77
108 -142 161 -155 182 -173 277 -9 47 -25 116 -37 153 -17 59 -25 72 -59 93
-22 14 -43 25 -47 25 -6 0 -107 47 -122 57 -2 1 7 18 19 38 26 43 38 42 136
-5 74 -36 141 -105 183 -188 19 -38 42 -67 63 -80 42 -26 214 -92 239 -92 38
0 17 27 -38 50 -191 77 -190 77 -230 152 -49 94 -105 149 -194 191 -41 19 -82
37 -91 40 -10 4 -18 15 -18 27 0 16 5 19 33 16 17 -2 42 -4 54 -5 13 -1 58
-32 102 -71 92 -80 138 -96 253 -87 116 10 196 59 249 152 21 37 39 56 67 68
78 35 251 201 285 275 6 12 11 22 12 22 1 0 66 -96 144 -214z m-1449 164 c0
-5 -7 -10 -15 -10 -8 0 -15 5 -15 10 0 6 7 10 15 10 8 0 15 -4 15 -10z m248
-2 c-3 -7 -11 -13 -18 -13 -7 0 -15 6 -17 13 -3 7 4 12 17 12 13 0 20 -5 18
-12z m40 -753 c2 -2 1 -13 -3 -24 -6 -20 -14 -21 -123 -22 -217 -2 -214 -2
-227 40 l-7 24 178 -7 c98 -4 180 -9 182 -11z m-32 -106 c3 -6 -1 -18 -10 -27
-13 -13 -43 -17 -146 -20 l-130 -4 -10 26 c-5 15 -10 29 -10 32 0 10 299 3
306 -7z"/>
<path d="M5312 4718 c-5 -7 -126 -195 -267 -418 -251 -395 -324 -508 -370
-580 -30 -46 -179 -282 -188 -296 -4 -7 37 -79 91 -161 53 -82 157 -241 230
-353 74 -113 224 -344 336 -515 l202 -310 810 -3 810 -2 154 247 c85 137 272
439 417 671 145 233 263 427 261 432 -2 4 -196 299 -433 654 l-430 645 -806 1
c-634 0 -809 -3 -817 -12z m1908 -718 c209 -313 380 -574 380 -579 0 -5 -163
-271 -363 -592 l-364 -584 -241 -3 -242 -2 0 -25 c0 -33 -27 -33 -42 0 l-11
25 -448 0 -447 0 -382 587 c-347 532 -381 589 -370 607 7 12 173 272 368 579
l355 557 714 0 713 0 380 -570z"/>
<path d="M5227 4257 c-17 -45 89 -300 157 -374 28 -31 37 -52 45 -103 12 -76
62 -157 120 -195 49 -33 166 -75 209 -75 18 0 65 14 104 30 76 32 118 37 180
18 26 -8 38 -16 36 -27 -3 -13 -24 -17 -112 -23 -93 -5 -117 -11 -170 -37 -33
-17 -85 -51 -113 -76 l-53 -46 -135 -7 c-78 -4 -135 -11 -136 -17 0 -16 40
-23 136 -24 135 0 167 9 225 63 76 71 144 98 260 104 l96 4 10 -51 11 -51 -97
0 c-139 0 -149 -5 -229 -119 -37 -53 -75 -109 -83 -124 -15 -29 -67 -63 -229
-146 -104 -54 -132 -77 -105 -87 9 -3 60 17 123 51 212 113 213 113 299 241
58 88 85 120 110 130 36 15 114 19 114 6 0 -4 14 -16 31 -26 17 -10 28 -20 26
-22 -2 -3 -33 2 -68 10 -37 9 -67 12 -72 7 -12 -12 -59 -198 -82 -323 -15 -78
-16 -108 -8 -150 11 -55 45 -190 50 -197 2 -3 18 9 36 27 18 17 52 38 76 47
91 32 133 81 255 300 36 66 66 127 66 137 0 11 -21 30 -55 49 -58 32 -69 49
-34 49 11 0 44 -22 72 -49 l51 -49 -11 -108 c-7 -60 -17 -130 -24 -155 -12
-46 -11 -52 49 -225 34 -97 64 -179 67 -182 2 -2 11 -2 19 1 12 5 3 39 -46
181 l-59 175 15 83 c21 111 30 211 23 240 -4 13 -38 57 -77 97 -38 40 -70 76
-70 79 1 4 17 17 36 30 l36 22 37 -32 c91 -80 151 -202 151 -307 0 -37 7 -54
33 -87 40 -51 178 -174 195 -174 27 0 7 29 -88 125 l-100 102 0 51 c0 61 -29
158 -61 204 -13 18 -49 60 -81 94 -46 48 -56 64 -45 72 9 8 25 4 62 -16 43
-24 54 -37 89 -109 52 -103 62 -113 149 -154 127 -59 255 -50 343 25 29 24 53
35 92 40 110 14 321 105 369 159 15 16 15 19 -2 37 -25 27 -106 65 -196 90
-67 19 -106 22 -399 25 -294 4 -332 6 -393 25 -37 11 -67 25 -67 30 0 5 29 8
65 8 57 -1 73 3 147 42 46 24 116 65 156 92 60 41 77 58 102 107 16 32 26 61
23 65 -15 15 -30 2 -56 -47 -29 -55 -42 -65 -194 -154 -122 -70 -136 -75 -193
-67 -52 7 -60 29 -15 40 31 8 58 38 53 60 -2 10 -19 29 -38 42 -19 13 -35 30
-35 39 0 20 98 75 180 103 33 11 94 23 135 28 75 7 93 21 45 34 -64 17 -238
-31 -338 -93 -55 -34 -87 -32 -87 6 0 83 -153 343 -202 345 -28 0 -22 -15 33
-82 69 -87 123 -197 123 -256 l1 -47 -46 0 c-75 -1 -89 -23 -64 -102 11 -34
-6 -28 -58 18 -43 37 -50 50 -82 151 -55 175 -61 215 -42 273 21 61 21 65 -2
65 -15 0 -23 -14 -36 -63 -17 -62 -16 -66 4 -144 50 -195 70 -243 123 -300 56
-58 49 -65 -28 -29 -50 23 -109 73 -387 329 -122 112 -152 134 -241 178 -113
55 -198 73 -209 46z m167 -49 c101 -44 143 -73 238 -163 81 -77 170 -158 306
-278 35 -31 88 -68 118 -83 42 -20 53 -31 48 -43 -3 -9 -11 -29 -16 -44 -8
-22 -14 -26 -32 -21 -82 27 -97 25 -219 -23 -63 -25 -73 -26 -122 -16 -156 33
-253 129 -272 270 -4 36 -16 59 -43 91 -61 69 -127 208 -154 326 l-7 29 42 -7
c23 -4 74 -21 113 -38z m836 -403 c0 -8 -7 -15 -15 -15 -8 0 -15 7 -15 15 0 8
7 15 15 15 8 0 15 -7 15 -15z m228 -93 c3 -9 -2 -13 -14 -10 -9 1 -19 9 -22
16 -3 9 2 13 14 10 9 -1 19 -9 22 -16z m384 -217 l328 -3 97 -31 c100 -31 163
-63 163 -81 0 -42 -330 -174 -389 -155 -11 3 -26 -5 -42 -21 -13 -14 -44 -38
-69 -52 -40 -24 -56 -27 -135 -27 -78 0 -98 4 -153 29 -66 31 -74 41 -158 201
-18 33 -66 73 -107 88 -5 1 -3 23 3 48 l12 46 61 -19 c53 -16 102 -19 389 -23z
m-786 -425 c77 -33 145 -60 152 -60 15 0 15 -6 2 -31 -6 -10 -17 -19 -24 -19
-7 0 -62 19 -122 43 -176 69 -174 68 -174 99 0 17 5 28 14 28 7 0 76 -27 152
-60z m-8 -112 c56 -24 103 -47 104 -53 0 -5 -7 -14 -16 -20 -12 -7 -41 -1
-115 24 -132 44 -160 62 -154 94 6 29 0 31 181 -45z"/>
<path d="M2703 3218 c-25 -40 -47 -75 -49 -76 -1 -2 -32 22 -69 53 -68 57 -88
64 -93 29 -2 -13 17 -36 58 -72 33 -29 60 -58 60 -64 0 -14 -171 -288 -179
-288 -3 0 -28 48 -55 108 -54 117 -65 179 -48 269 9 53 3 73 -25 73 -18 0 -36
-74 -36 -155 -1 -71 15 -118 105 -317 l21 -47 -43 -66 -42 -65 -37 22 c-82 50
-362 240 -446 303 -110 82 -190 123 -318 163 -130 41 -242 58 -281 43 -25 -10
-28 -15 -22 -44 25 -126 244 -454 335 -501 21 -11 30 -28 45 -87 22 -89 61
-153 130 -215 58 -53 106 -76 220 -106 45 -11 82 -22 84 -23 2 -2 -21 -43 -52
-92 l-54 -88 19 -31 c10 -17 19 -34 19 -37 0 -12 -112 -37 -236 -53 -71 -9
-133 -20 -138 -24 -18 -18 3 -40 38 -40 48 0 237 27 311 44 33 8 63 12 66 10
4 -2 33 -45 64 -94 l57 -91 -23 -56 c-26 -63 -74 -105 -313 -273 -131 -92
-158 -122 -121 -136 16 -7 211 126 363 247 63 51 102 90 116 117 l21 41 82
-128 c73 -113 83 -134 88 -187 8 -76 19 -110 71 -218 24 -49 46 -103 50 -121
l6 -32 43 46 c24 25 45 44 48 41 2 -3 42 -63 88 -135 46 -71 99 -151 117 -178
l34 -47 806 0 807 0 86 138 c48 75 149 238 226 362 77 124 227 364 333 534
133 214 190 314 184 323 -5 8 -200 301 -434 653 l-425 639 -808 1 -807 0 -47
-72z m1948 -660 l381 -571 -15 -31 c-9 -17 -173 -283 -365 -591 l-349 -560
-496 -3 c-401 -2 -497 0 -497 11 0 7 -39 87 -87 177 -48 91 -100 197 -116 235
-29 70 -29 71 -27 272 1 222 -3 241 -61 307 -18 21 -57 51 -86 68 -29 16 -53
34 -53 39 0 5 -18 22 -40 38 l-40 29 50 36 c27 20 50 41 50 47 0 16 145 -88
203 -146 67 -68 112 -154 142 -274 24 -95 25 -97 87 -155 72 -67 261 -196 288
-196 23 0 32 24 17 43 -7 8 -41 34 -77 57 -112 74 -229 164 -238 186 -6 11
-15 45 -21 76 -38 183 -125 307 -296 421 -59 40 -62 43 -48 64 13 19 18 20 51
11 95 -26 121 -46 192 -153 38 -56 82 -114 100 -128 37 -32 198 -84 285 -93
123 -13 248 38 343 140 42 45 69 66 85 66 124 0 537 249 537 324 0 85 -400
155 -636 111 -83 -15 -174 -27 -513 -71 -198 -25 -206 -25 -298 -10 -53 9 -99
19 -104 22 -22 13 -4 22 59 27 91 9 125 22 199 74 80 56 270 212 304 249 27
29 79 158 79 195 0 13 -7 19 -23 19 -20 0 -27 -10 -48 -77 -28 -90 -38 -101
-224 -250 -161 -129 -207 -153 -292 -153 -44 0 -63 4 -63 13 0 20 13 33 47 51
84 43 77 103 -17 144 -40 18 -60 32 -60 44 0 19 111 106 205 161 77 44 193 85
270 95 51 6 60 10 60 27 0 17 -8 20 -52 23 -107 6 -308 -81 -454 -198 -53 -43
-77 -56 -95 -52 -13 2 -24 10 -24 18 0 25 -40 120 -74 177 l-35 58 41 64 40
65 714 0 714 0 381 -572z m-3166 512 c147 -47 207 -78 335 -172 128 -94 548
-377 595 -401 17 -8 62 -25 101 -37 l71 -21 -13 -37 c-7 -20 -13 -52 -14 -69
l0 -33 -47 8 c-115 17 -140 12 -263 -57 -132 -74 -171 -82 -290 -57 -200 42
-330 162 -363 336 -10 49 -15 59 -50 80 -48 30 -122 116 -194 228 -62 94 -123
220 -123 253 0 21 2 22 78 16 44 -3 120 -19 177 -37z m1282 -187 c72 -137 66
-173 -29 -173 -45 0 -63 -5 -78 -20 -26 -26 -26 -73 1 -109 12 -16 19 -36 17
-45 -3 -14 -8 -13 -47 7 -24 12 -59 36 -77 52 l-34 30 101 158 c55 86 104 157
108 157 5 0 22 -26 38 -57z m-49 -216 c2 -11 -3 -17 -17 -17 -23 0 -35 15 -26
31 10 15 39 6 43 -14z m341 -71 c8 -10 8 -16 -2 -25 -17 -13 -54 10 -43 27 10
16 31 15 45 -2z m-506 -69 c84 -55 79 -75 -13 -47 -99 30 -94 26 -73 60 9 16
18 30 19 30 0 0 31 -19 67 -43z m1775 -146 c51 -11 117 -31 147 -45 67 -30 65
-36 -30 -111 -137 -107 -327 -203 -435 -220 -39 -6 -51 -15 -93 -66 -38 -46
-65 -67 -125 -96 -74 -37 -79 -38 -186 -38 -90 0 -125 5 -183 24 -86 28 -116
55 -208 192 -71 103 -93 121 -193 150 -31 9 -41 16 -37 27 3 9 8 41 12 72 l6
57 61 -13 c33 -7 90 -13 126 -14 73 0 562 61 720 90 127 23 278 20 418 -9z
m-1785 -106 c9 -4 17 -18 17 -31 0 -19 -6 -24 -37 -29 -123 -19 -213 -39 -252
-56 -24 -11 -46 -17 -49 -14 -13 12 58 92 103 118 45 25 57 28 125 23 41 -2
83 -7 93 -11z m37 -132 c0 -10 11 -41 24 -70 l24 -51 -41 -5 c-268 -33 -308
-48 -360 -139 -11 -21 -24 -38 -27 -38 -8 0 -90 128 -90 140 0 12 106 93 155
117 34 17 101 36 200 57 11 2 41 4 68 5 38 1 47 -2 47 -16z m-54 -225 c72 -39
75 -58 6 -47 -76 13 -152 11 -158 -4 -2 -7 -10 -61 -18 -120 -7 -59 -15 -109
-18 -112 -6 -6 -98 130 -98 146 0 6 15 35 32 65 36 59 70 81 147 94 25 4 46 8
46 9 1 0 28 -14 61 -31z m445 -148 c58 -56 62 -79 57 -330 l-3 -179 113 -223
c62 -123 112 -226 112 -230 0 -5 -85 -8 -189 -8 l-189 0 -96 147 -95 147 36
39 c20 22 55 81 78 131 54 115 150 358 167 420 12 45 11 49 -9 66 -12 9 -53
27 -92 40 -53 17 -71 27 -71 41 0 26 48 29 95 4 21 -11 60 -40 86 -65z m-491
-146 c52 -14 160 -42 240 -63 137 -36 145 -39 142 -61 -4 -33 -21 -51 -46 -45
-128 28 -370 89 -403 102 -38 14 -43 19 -43 48 0 25 7 47 14 45 1 0 44 -12 96
-26z m90 -184 c80 -22 164 -44 188 -50 47 -12 49 -16 25 -42 -22 -24 -54 -23
-218 11 -201 42 -215 49 -201 106 7 29 -7 31 206 -25z"/>
</g>
</svg>
